# xmcd
#
# Track frame offsets:
#	150
#	19522
#	33015
#	54200
#
# Disc length: 962 seconds
#
# Revision: 0
# Processed by: cddbd v1.5.1PL0 Copyright (c) Steve Scherf et al.
# Submitted via: audiograbber 1.81.02
#
DISCID=1d03c004
DTITLE=Sammy Rose - Rose By Sammy Rose
DYEAR=1900
DGENRE=
TTITLE0=Rose
TTITLE1=Bear Country
TTITLE2=I Can't Stop The Rain
TTITLE3=Going Home (Bonus Track)
EXTD=
EXTT0=
EXTT1=
EXTT2=
EXTT3=
PLAYORDER=
